Patient4_TMGait_0pt6_01_left_35_EMG.mot
version=1
nRows=27
nColumns=33
inDegrees=no
endheader
time	1LAddLong	2LGlutMax	3LGlutMed	4LIliopsoas	5LSemiMemb	6LBicFemLong	7LRecFem	8LVastMed	9LVastLat	10LGasMed	11LTibAnt	12lTibPost	13LPeroneusLong	14LSol	15LExtDigLong	16LFlexDigLong	17RAddLong	18RGlutMax	19RGlutMed	20RIliopsoas	21RSemiMemb	22RBicFemLong	23RRecFem	24RVastMed	25RVastLat	26RGasMed	27RTibAnt	28RTibPost	29RPeroneusLong	30RSol	31RExtDigLong	32RFlexDigLong
42.977	0.031128	0.85754	-0.057373	0.011597	-0.097656	-0.4306	0.35584	0.00061	-0.42511	-0.01236	-0.014954	0.01236	-0.94009	-0.030975	-0.13489	0.019073	0.039673	0.54703	-0.37231	0.076904	-0.084686	-0.087738	0.60532	-0.018768	0.035553	0.006409	0.063171	-0.027466	-0.40573	0.45761	-0.002747	-0.007172
42.978	0.011902	0.93826	0.058594	0.024261	-0.10468	-0.33203	0.38681	0.022736	-0.41458	-0.091553	0.018921	0.010681	-0.43472	-0.059052	-0.1239	0.020905	0.058746	0.62332	-0.35172	0.029297	-0.088501	-0.046997	0.56747	0.000916	0.032959	0.014496	0.032959	-0.052948	-0.25345	0.54581	-0.000458	-0.006561
42.979	0.00351	0.94116	0.02121	0.019531	-0.061646	-0.06424	0.37537	0.020142	-0.42129	-0.1648	-0.003357	0.013885	0.53513	-0.056763	-0.14145	0.019379	0.072021	0.62485	-0.28641	0.000305	-0.079956	-0.038605	0.60821	0.019531	0.018921	-0.003967	0.028076	-0.056	0.84549	0.56702	-0.004883	-0.00824
42.98	0.007782	1.0133	-0.042877	0.001221	0.072784	0.11841	0.31891	0.023346	-0.4007	-0.11536	-0.000458	0.012665	0.20371	-0.10315	-0.09491	0.015411	0.057831	0.67139	-0.27924	-0.070953	-0.055695	-0.056763	0.56595	0.041504	0.005951	-0.002136	0.03891	-0.063629	0.45242	0.51712	-0.006256	-0.011139
42.981	-0.007477	0.99228	-0.097504	0.016479	0.009766	0.42511	0.41473	0.025635	-0.36957	-0.089264	0.001373	0.00885	-0.065765	-0.49622	0.025024	0.020294	0.04364	0.73883	-0.17441	-0.12177	0.020447	-0.059052	0.60699	0.083008	0.020447	0.003052	0.032806	-0.06073	-0.16586	0.29343	-0.005341	-0.010376
42.982	0.000305	0.98846	0.02121	0.009766	-0.010681	0.48675	0.49515	0.047913	-0.34454	-0.19882	0.012665	0.015411	0.14465	-0.49057	0.089417	0.027618	0.071106	0.76431	-0.071869	-0.085754	0.046539	-0.03418	0.61645	0.074005	0.02121	-0.00824	0.079346	-0.054779	-0.28275	0.14893	-0.001068	-0.019836
42.983	0.006561	1.0008	0.095673	0.022736	-0.038605	0.081177	0.43778	0.062561	-0.26642	-0.34103	-0.014343	0.007477	0.77331	-0.12604	0.095673	0.023651	0.029602	0.79102	-0.11093	-0.008698	0.06958	-0.023651	0.61829	0.093231	0.025177	-0.018005	0.11551	-0.083923	-0.15472	0.006104	-0.001678	-0.018921
42.984	0.025024	0.97427	0.11307	0.025787	-0.025787	-0.22186	0.31601	0.073853	-0.24963	-0.30609	-0.026245	0.005798	0.42191	0.20798	0.002899	0.020905	0.014648	0.76141	-0.27542	0.052032	0.062408	-0.033264	0.58792	0.063782	0.018463	-0.016327	0.11398	-0.14908	0.11841	0.2121	-0.002441	-0.015259
42.985	0.036469	0.97382	0.077515	0.024719	0.043945	-0.21774	0.38956	0.041351	-0.19623	-0.16556	0.010223	0.006561	-0.22751	0.16342	-0.215	0.012207	0.028381	0.8078	-0.22827	-0.025024	0.028992	-0.10056	0.57083	0.073547	0.021515	-0.005493	0.065308	-0.14999	0.42191	0.22507	-0.006104	-0.014191
42.986	0.027466	0.94345	0.021667	0.023499	0.10544	0.015106	0.39352	0.001526	-0.15747	0.030518	0.092316	0.001678	-1.0965	0.37033	-0.08255	0.018005	0.014648	0.85617	-0.11643	-0.1355	0.012054	-0.1622	0.61264	0.023346	-0.016174	-0.001984	0.039673	-0.038147	0.20767	0.001068	-0.001984	-0.012817
42.987	0.026703	0.92941	-0.092773	0.024872	0.044708	-0.047302	0.3775	-0.007019	-0.177	0.12299	0.079041	-0.003204	-0.30762	0.16724	0.048523	0.008087	0.010376	0.85434	-0.095367	-0.082397	0.005341	-0.19714	0.59662	0.016785	-0.009918	0.012512	0.010681	0.071411	-0.2449	-0.12421	-0.003967	0.005341
42.988	0.021515	0.88364	-0.15854	0.018768	-0.010223	-0.56671	0.45944	-0.004272	-0.041199	0.25269	0.049896	-0.006104	0.16632	0.055389	0.083618	0.015717	0.041351	0.83893	-0.093842	-0.072021	-0.001984	-0.22705	0.59067	-0.019989	0.01297	0.015564	0.046234	0.078888	-0.35446	-0.27313	-0.00351	-0.014343
42.989	0.036774	0.89127	-0.15732	0.000153	-0.030975	-0.34271	0.47531	-0.011902	0.007782	0.38315	0.029144	-0.001984	0.29373	-0.094604	0.12924	0.018921	0.049286	0.85236	-0.12924	-0.018158	0.001373	-0.25345	0.61478	-0.012054	-0.002289	0.003204	0.04303	-0.12039	0.04776	-0.14114	-0.007477	0.001068
42.99	0.019836	0.85724	0.002136	0.012665	-0.055084	-0.000153	0.58548	-0.016479	-0.10895	0.29434	0.069275	0.003662	-0.23377	-0.25726	0.11215	0.015869	0.048981	0.8284	-0.067902	0.10071	-0.012207	-0.24933	0.61554	-0.053253	-0.005341	-0.015411	0.04837	0.077362	0.019531	0.28702	-0.003357	0.003967
42.991	0.015106	0.85861	0.028076	0.022736	-0.053711	-0.009308	0.60226	-0.029755	-0.23056	0.22705	0.015564	0.003357	-0.39459	-0.22934	0.121	0.024261	0.084381	0.82398	0.010071	0.18021	-0.018463	-0.2269	0.60577	-0.085907	-0.013123	-0.015106	0.039368	-0.33112	0.022888	-0.2623	-0.005035	0.006409
42.992	0.019989	0.77408	0.026093	0.015411	-0.053406	-0.073395	0.57114	-0.007172	-0.1062	0.044403	-0.093079	0.010223	-0.002441	-0.29343	0.035095	0.017242	0.077515	0.76446	0.052338	0.053406	-0.012512	-0.21591	0.61645	-0.048676	-0.01358	-0.006256	0.026855	-0.048523	0.044556	-0.43442	-0.002289	0.001526
42.993	0.010376	0.76675	0.049591	0.026398	-0.063324	-0.002747	0.51361	0.009155	-0.05127	-0.024109	-0.16296	0.006256	0.12894	-0.26306	-0.030823	0.007935	0.067291	0.73334	-0.048828	-0.053711	0	-0.11093	0.61737	-0.083008	-0.010223	-0.001678	0.070496	0.25909	-0.072784	-0.37155	-0.005798	-0.010376
42.994	0.014191	0.74463	0.070496	0.024567	-0.065765	0.087433	0.44388	0.015869	-0.054932	-0.17761	-0.11932	0.021057	-0.00885	-0.28793	0.008392	0.006714	0.072632	0.71091	-0.22659	-0.072327	-0.020905	-0.093994	0.62012	-0.066528	-0.036926	0.011749	0.11475	0.37705	-0.47501	-0.43701	-0.00061	-0.012054
42.995	0.015106	0.70145	0.067902	0.033264	-0.09201	0.12131	0.34759	0.016479	-0.045319	-0.215	-0.054779	0.027618	-0.30563	-0.13184	0.13809	0.004425	0.018768	0.71884	-0.12955	-0.015564	-0.022888	-0.10376	0.62653	-0.089569	-0.032196	0.012817	0.11551	-0.61706	0.049133	-0.36057	-0.001526	-0.012207
42.996	0.011597	0.68924	0.097198	0.003052	-0.079346	0.076904	0.22659	0.02121	-0.035095	-0.21851	0.049133	0.031738	-0.15488	0.06485	0.10483	0.012054	-0.062408	0.69992	-0.18997	0.007629	-0.036163	-0.13962	0.61417	-0.10834	-0.035706	0.005188	0.056763	-0.13062	-0.077362	-0.21378	-0.00351	-0.007782
42.997	0.020447	0.67871	0.052643	0.005646	-0.045776	-0.12039	0.19669	0.009613	-0.013123	-0.11932	0.23224	0.036926	0.085144	0.18494	-0.073547	0.007019	-0.086365	0.6604	-0.2327	0.07019	-0.039063	-0.16098	0.59494	-0.10742	-0.031433	-0.037689	0.042419	0.37476	-0.17014	-0.17212	0.00824	-0.013123
42.998	0.0177	0.71426	-0.037842	0.004425	-0.086823	-0.022583	0.23224	0.009766	-0.10895	-0.13458	0.41046	0.027771	0.70358	0.16144	-0.16266	0.006409	-0.12039	0.56702	-0.20615	0.077972	-0.028076	-0.13886	0.60562	-0.098877	-0.028229	-0.024872	0.026855	0.26016	0.068512	-0.14618	-0.002747	-0.007324
42.999	0.008698	0.75882	-0.049286	-0.000763	-0.022736	0.063782	0.1445	-0.000763	-0.17303	-0.17456	0.24765	0.025024	1.2241	0.15182	-0.10834	0.003052	-0.0914	0.53665	-0.16174	0.13214	-0.027008	-0.13779	0.61798	-0.10178	-0.016785	0.016937	-0.014038	0.072479	-0.10651	-0.33798	-0.00061	-0.004425
43	0.005798	0.73502	-0.089722	0.009918	-0.016022	0.21805	0.11581	-0.001526	-0.20172	0.044708	0.076447	0.015411	0.18097	0.070648	-0.080109	0.003204	-0.05722	0.45761	-0.32593	0.1535	-0.024261	-0.12604	0.59113	-0.1152	-0.002594	0.031586	-0.047913	-0.005493	-0.11307	-0.48477	-0.002136	-0.007782
43.001	-0.002136	0.73975	-0.092316	0.021362	-0.070648	0.48462	0.089722	0.012512	-0.17883	0.62149	-0.086212	0.007019	-0.59494	0.018005	0.098419	-0.007782	-0.042877	0.45929	-0.43732	0.15167	-0.02121	-0.11963	0.61874	-0.13062	-0.013428	0.028687	-0.027771	-0.050812	-0.43823	-0.53223	0.008545	-0.008698
43.002	-0.008698	0.73929	0.009003	0.025635	-0.11169	0.70328	0.018616	0.014191	-0.12695	0.76111	-0.13473	0.003357	-0.76843	-0.14587	0.077515	0.002136	0.012512	0.43198	-0.26566	0.10193	-0.006866	-0.11169	0.616	-0.13382	-0.004578	0.012207	-0.038605	-0.034027	-0.13947	0.021362	-0.001984	-0.003967
43.003	0.012512	0.70084	0.14313	0.022278	-0.08606	0.76096	-0.038605	0.019073	-0.055847	0.11383	0.062714	0.004272	0.26382	-0.26733	0.18249	0.002441	0.043182	0.42511	-0.052338	0.074463	0.012207	-0.11139	0.61905	-0.096741	0.004883	-0.004425	-0.027618	-0.013275	-0.11124	0.37918	0	0.003357
